<?xml version="1.0" encoding="UTF-8" standalone="no"?>
<!-- Created with matplotlib (https://matplotlib.org/) -->

<svg
   height="275pt"
   version="1.1"
   viewBox="0 0 390 275"
   width="390pt"
   id="svg1232"
   sodipodi:docname="Legendrepolynomials6.svg"
   inkscape:version="1.2.2 (732a01da63, 2022-12-09)"
   xmlns:inkscape="http://www.inkscape.org/namespaces/inkscape"
   xmlns:sodipodi="http://sodipodi.sourceforge.net/DTD/sodipodi-0.dtd"
   xmlns:xlink="http://www.w3.org/1999/xlink"
   xmlns="http://www.w3.org/2000/svg"
   xmlns:svg="http://www.w3.org/2000/svg">
  <sodipodi:namedview
     id="namedview1234"
     pagecolor="#ffffff"
     bordercolor="#000000"
     borderopacity="0.25"
     inkscape:showpageshadow="2"
     inkscape:pageopacity="0.0"
     inkscape:pagecheckerboard="0"
     inkscape:deskcolor="#d1d1d1"
     inkscape:document-units="pt"
     showgrid="false"
     inkscape:zoom="0.9550852"
     inkscape:cx="299.44972"
     inkscape:cy="181.13567"
     inkscape:window-width="1366"
     inkscape:window-height="745"
     inkscape:window-x="1592"
     inkscape:window-y="126"
     inkscape:window-maximized="1"
     inkscape:current-layer="axes_1" />
  <defs
     id="defs711">
    <style
       type="text/css"
       id="style709">
*{stroke-linecap:butt;stroke-linejoin:round;}
  </style>
  </defs>
  <g
     id="figure_1">
    <g
       id="patch_1">
      <path
         d="M 0,288 H 432 V 0 H 0 Z"
         style="fill:none"
         id="path713" />
    </g>
    <g
       id="axes_1">
      <g
         id="matplotlib.axis_1"
         transform="translate(-22.053158,-14.682784)">
        <g
           id="xtick_1">
          <g
             id="line2d_2"
             transform="translate(-0.09964557)">
            <defs
               id="defs723">
              <path
                 d="M 0,0 V 3.5"
                 id="me0960cf77a"
                 style="stroke:#000000;stroke-width:0.8" />
            </defs>
            <g
               id="g727">
              <use
                 style="stroke:#000000;stroke-width:0.8"
                 x="66.672646"
                 xlink:href="#me0960cf77a"
                 y="257.41324"
                 id="use725" />
            </g>
          </g>
          <g
             id="text_1"
             transform="translate(-0.99998735)">
            <!-- $-1.00$ -->
            <defs
               id="defs734">
              <path
                 d="m 65.90625,23 c 1.6875,0 3.5,0 3.5,2 0,2 -1.8125,2 -3.5,2 H 11.796875 c -1.703125,0 -3.5,0 -3.5,-2 0,-2 1.796875,-2 3.5,-2 z"
                 id="CMSY10-0" />
              <path
                 d="M 26.59375,63.796875 C 26.59375,65.890625 26.5,66 25.09375,66 21.203125,61.359375 15.296875,59.890625 9.703125,59.6875 c -0.296875,0 -0.796875,0 -0.90625,-0.1875 C 8.703125,59.296875 8.703125,59.09375 8.703125,57 11.796875,57 17,57.59375 21,59.984375 v -52.6875 c 0,-3.5 -0.203125,-4.703125 -8.796875,-4.703125 h -3 V 0 C 14,0.09375 19,0.1875 23.796875,0.1875 28.59375,0.1875 33.59375,0.09375 38.40625,0 v 2.59375 h -3 c -8.609375,0 -8.8125,1.09375 -8.8125,4.703125 z"
                 id="CMR17-49" />
              <path
                 d="M 18.40625,4.796875 C 18.40625,7.6875 16,9.6875 13.59375,9.6875 10.703125,9.6875 8.703125,7.296875 8.703125,4.890625 8.703125,2 11.09375,0 13.5,0 c 2.90625,0 4.90625,2.390625 4.90625,4.796875 z"
                 id="CMMI12-58" />
              <path
                 d="m 42,31.84375 c 0,6.125 -0.09375,16.578125 -4.296875,24.609375 C 34,63.484375 28.09375,66 22.90625,66 18.09375,66 12,63.78125 8.203125,56.5625 4.203125,49.015625 3.796875,39.671875 3.796875,31.84375 3.796875,26.109375 3.90625,17.375 7,9.734375 11.296875,-0.609375 19,-2 22.90625,-2 27.5,-2 34.5,-0.109375 38.59375,9.4375 41.59375,16.375 42,24.5 42,31.84375 Z m -19.09375,-32.25 C 16.5,-0.40625 12.703125,5.125 11.296875,12.75 c -1.09375,5.9375 -1.09375,14.578125 -1.09375,20.203125 0,7.734375 0,14.15625 1.296875,20.28125 1.90625,8.546875 7.5,11.15625 11.40625,11.15625 4.09375,0 9.390625,-2.71875 11.296875,-10.953125 C 35.5,47.71875 35.59375,40.984375 35.59375,32.953125 c 0,-6.53125 0,-14.578125 -1.1875,-20.5 -2.109375,-10.953125 -8,-12.859375 -11.5,-12.859375 z"
                 id="CMR17-48" />
            </defs>
            <g
               transform="matrix(0.12,0,0,-0.12,51.618082,272.7154)"
               id="g746">
              <use
                 transform="scale(0.996264)"
                 xlink:href="#CMSY10-0"
                 id="use736" />
              <use
                 transform="matrix(0.996264,0,0,0.996264,77.487468,0)"
                 xlink:href="#CMR17-49"
                 id="use738" />
              <use
                 transform="matrix(0.996264,0,0,0.996264,123.17794,0)"
                 xlink:href="#CMMI12-58"
                 id="use740" />
              <use
                 transform="matrix(0.996264,0,0,0.996264,150.27512,0)"
                 xlink:href="#CMR17-48"
                 id="use742" />
            </g>
          </g>
        </g>
        <g
           id="xtick_2">
          <g
             id="line2d_4">
            <g
               id="g755">
              <use
                 style="stroke:#000000;stroke-width:0.8"
                 x="108.64312"
                 xlink:href="#me0960cf77a"
                 y="257.41324"
                 id="use753" />
            </g>
          </g>
        </g>
        <g
           id="xtick_3">
          <g
             id="line2d_6">
            <g
               id="g781">
              <use
                 style="stroke:#000000;stroke-width:0.8"
                 x="150.6136"
                 xlink:href="#me0960cf77a"
                 y="257.41324"
                 id="use779" />
            </g>
          </g>
          <g
             id="text_3"
             transform="translate(-0.99994635)">
            <!-- $-0.50$ -->
            <g
               transform="matrix(0.12,0,0,-0.12,135.55904,272.7154)"
               id="g794">
              <use
                 transform="scale(0.996264)"
                 xlink:href="#CMSY10-0"
                 id="use784" />
              <use
                 transform="matrix(0.996264,0,0,0.996264,77.487468,0)"
                 xlink:href="#CMR17-48"
                 id="use786" />
              <use
                 transform="matrix(0.996264,0,0,0.996264,123.17794,0)"
                 xlink:href="#CMMI12-58"
                 id="use788" />
              <path
                 d="m 161.63876,58.374844 c 0.99626,-0.404732 5.07472,-1.696762 9.26214,-1.696762 9.26214,0 14.33686,4.98132 17.23225,7.767746 0,0.793897 0,1.307596 -0.59153,1.307596 -0.10896,0 -0.31133,0 -1.10523,-0.404732 -3.48692,-1.494396 -7.56538,-2.58406 -12.5467,-2.58406 -2.98879,0 -7.47198,0.358032 -12.3599,2.475093 -1.08966,0.513699 -1.29203,0.513699 -1.38543,0.513699 -0.49813,0 -0.6071,-0.108966 -0.6071,-2.085928 V 34.72914 c 0,-1.836861 0,-2.35056 0.99627,-2.35056 0.49813,0 0.7005,0.202366 1.19863,0.918431 3.19116,4.607721 7.56538,6.553549 12.5467,6.553549 3.48692,0 10.9589,-2.257161 10.9589,-19.722914 0,-3.206725 0,-8.981942 -2.98879,-13.5585303 -2.49066,-4.0940223 -6.36675,-6.17995007 -10.64757,-6.17995007 -6.58468,0 -13.26277,4.57658777 -15.05293,12.25093437 0.40473,-0.0934 1.19863,-0.295766 1.60336,-0.295766 1.29203,0 3.78269,0.700498 3.78269,3.782689 0,2.693027 -1.89912,3.798257 -3.78269,3.798257 -2.30386,0 -3.79825,-1.400996 -3.79825,-4.187422 0,-8.6706103 6.88045,-17.730386 17.43462,-17.730386 10.27397,0 20.03424,8.8574096 20.03424,21.715442 0,12.250934 -7.76774,21.715442 -17.43462,21.715442 -5.09028,0 -9.3711,-1.899128 -12.74906,-5.572852 z"
                 id="use790"
                 style="stroke-width:0.996264" />
            </g>
          </g>
        </g>
        <g
           id="xtick_4">
          <g
             id="line2d_8">
            <g
               id="g803">
              <use
                 style="stroke:#000000;stroke-width:0.8"
                 x="192.58408"
                 xlink:href="#me0960cf77a"
                 y="257.41324"
                 id="use801" />
            </g>
          </g>
        </g>
        <g
           id="xtick_5">
          <g
             id="line2d_10">
            <g
               id="g828">
              <use
                 style="stroke:#000000;stroke-width:0.8"
                 x="234.55457"
                 xlink:href="#me0960cf77a"
                 y="257.41324"
                 id="use826" />
            </g>
          </g>
          <g
             id="text_5"
             transform="translate(3.9998322)">
            <!-- $0.00$ -->
            <g
               transform="matrix(0.12,0,0,-0.12,224.14924,272.7154)"
               id="g839">
              <use
                 transform="scale(0.996264)"
                 xlink:href="#CMR17-48"
                 id="use831" />
              <use
                 transform="matrix(0.996264,0,0,0.996264,45.690477,0)"
                 xlink:href="#CMMI12-58"
                 id="use833" />
              <use
                 transform="matrix(0.996264,0,0,0.996264,72.787654,0)"
                 xlink:href="#CMR17-48"
                 id="use835" />
            </g>
          </g>
        </g>
        <g
           id="xtick_6">
          <g
             id="line2d_12">
            <g
               id="g848">
              <use
                 style="stroke:#000000;stroke-width:0.8"
                 x="276.52505"
                 xlink:href="#me0960cf77a"
                 y="257.41324"
                 id="use846" />
            </g>
          </g>
        </g>
        <g
           id="xtick_7">
          <g
             id="line2d_14">
            <g
               id="g868">
              <use
                 style="stroke:#000000;stroke-width:0.8"
                 x="318.49551"
                 xlink:href="#me0960cf77a"
                 y="257.41324"
                 id="use866" />
            </g>
          </g>
          <g
             id="text_7"
             transform="translate(3.9998732)">
            <!-- $0.50$ -->
            <g
               transform="matrix(0.12,0,0,-0.12,308.0902,272.7154)"
               id="g879">
              <use
                 transform="scale(0.996264)"
                 xlink:href="#CMR17-48"
                 id="use871" />
              <use
                 transform="matrix(0.996264,0,0,0.996264,45.690477,0)"
                 xlink:href="#CMMI12-58"
                 id="use873" />
              <path
                 d="m 84.15129,58.374844 c 0.996264,-0.404732 5.07472,-1.696762 9.262142,-1.696762 9.262138,0 14.336858,4.98132 17.232258,7.767746 0,0.793897 0,1.307596 -0.59154,1.307596 -0.10896,0 -0.31133,0 -1.10523,-0.404732 -3.48692,-1.494396 -7.56538,-2.58406 -12.546696,-2.58406 -2.988792,0 -7.47198,0.358032 -12.3599,2.475093 -1.089664,0.513699 -1.29203,0.513699 -1.38543,0.513699 -0.498132,0 -0.607098,-0.108966 -0.607098,-2.085928 V 34.72914 c 0,-1.836861 0,-2.35056 0.996264,-2.35056 0.498132,0 0.700498,0.202366 1.19863,0.918431 3.191158,4.607721 7.56538,6.553549 12.5467,6.553549 3.48692,0 10.9589,-2.257161 10.9589,-19.722914 0,-3.206725 0,-8.981942 -2.98879,-13.5585303 -2.49066,-4.0940223 -6.366748,-6.17995007 -10.64757,-6.17995007 -6.584682,0 -13.262764,4.57658777 -15.052926,12.25093437 0.404732,-0.0934 1.19863,-0.295766 1.603362,-0.295766 1.29203,0 3.78269,0.700498 3.78269,3.782689 0,2.693027 -1.899128,3.798257 -3.78269,3.798257 -2.30386,0 -3.798256,-1.400996 -3.798256,-4.187422 0,-8.6706103 6.880448,-17.730386 17.43462,-17.730386 10.27397,0 20.03425,8.8574096 20.03425,21.715442 0,12.250934 -7.76775,21.715442 -17.434624,21.715442 -5.090286,0 -9.371108,-1.899128 -12.749066,-5.572852 z"
                 id="use875"
                 style="stroke-width:0.996264" />
            </g>
          </g>
        </g>
        <g
           id="xtick_8">
          <g
             id="line2d_16">
            <g
               id="g888">
              <use
                 style="stroke:#000000;stroke-width:0.8"
                 x="360.466"
                 xlink:href="#me0960cf77a"
                 y="257.41324"
                 id="use886" />
            </g>
          </g>
        </g>
        <g
           id="xtick_9">
          <g
             id="line2d_18">
            <g
               id="g908">
              <use
                 style="stroke:#000000;stroke-width:0.8"
                 x="402.43649"
                 xlink:href="#me0960cf77a"
                 y="257.41324"
                 id="use906" />
            </g>
          </g>
          <g
             id="text_9"
             transform="translate(4.0003668)">
            <!-- $1.00$ -->
            <g
               transform="matrix(0.12,0,0,-0.12,392.03116,272.7154)"
               id="g919">
              <use
                 transform="scale(0.996264)"
                 xlink:href="#CMR17-49"
                 id="use911" />
              <use
                 transform="matrix(0.996264,0,0,0.996264,45.690477,0)"
                 xlink:href="#CMMI12-58"
                 id="use913" />
              <use
                 transform="matrix(0.996264,0,0,0.996264,72.787654,0)"
                 xlink:href="#CMR17-48"
                 id="use915" />
            </g>
          </g>
        </g>
      </g>
      <g
         id="matplotlib.axis_2"
         transform="translate(-5.552719,-11.682913)">
        <g
           id="ytick_1">
          <g
             id="line2d_19" />
          <g
             id="line2d_20">
            <defs
               id="defs928">
              <path
                 d="M 0,0 H -3.5"
                 id="ma3d4b8ffef"
                 style="stroke:#000000;stroke-width:0.8" />
            </defs>
            <g
               id="g932">
              <use
                 style="stroke:#000000;stroke-width:0.8"
                 x="50.069122"
                 xlink:href="#ma3d4b8ffef"
                 y="254.45038"
                 id="use930" />
            </g>
          </g>
          <g
             id="text_10"
             transform="translate(8.0480947)">
            <!-- $-1.00$ -->
            <g
               transform="matrix(0.12,0,0,-0.12,12.96,258.60146)"
               id="g945">
              <use
                 transform="scale(0.996264)"
                 xlink:href="#CMSY10-0"
                 id="use935" />
              <use
                 transform="matrix(0.996264,0,0,0.996264,77.487468,0)"
                 xlink:href="#CMR17-49"
                 id="use937" />
              <use
                 transform="matrix(0.996264,0,0,0.996264,123.17794,0)"
                 xlink:href="#CMMI12-58"
                 id="use939" />
              <use
                 transform="matrix(0.996264,0,0,0.996264,150.27512,0)"
                 xlink:href="#CMR17-48"
                 id="use941" />
            </g>
          </g>
        </g>
        <g
           id="ytick_2">
          <g
             id="line2d_21" />
          <g
             id="line2d_22">
            <g
               id="g954">
              <use
                 style="stroke:#000000;stroke-width:0.8"
                 x="50.069122"
                 xlink:href="#ma3d4b8ffef"
                 y="224.82185"
                 id="use952" />
            </g>
          </g>
        </g>
        <g
           id="ytick_3">
          <g
             id="line2d_23" />
          <g
             id="line2d_24">
            <g
               id="g976">
              <use
                 style="stroke:#000000;stroke-width:0.8"
                 x="50.069122"
                 xlink:href="#ma3d4b8ffef"
                 y="195.19334"
                 id="use974" />
            </g>
          </g>
          <g
             id="text_12"
             transform="translate(8.0480947)">
            <!-- $-0.50$ -->
            <g
               transform="matrix(0.12,0,0,-0.12,12.96,199.34443)"
               id="g989">
              <use
                 transform="scale(0.996264)"
                 xlink:href="#CMSY10-0"
                 id="use979" />
              <use
                 transform="matrix(0.996264,0,0,0.996264,77.487468,0)"
                 xlink:href="#CMR17-48"
                 id="use981" />
              <use
                 transform="matrix(0.996264,0,0,0.996264,123.17794,0)"
                 xlink:href="#CMMI12-58"
                 id="use983" />
              <path
                 d="m 161.63876,58.374844 c 0.99626,-0.404732 5.07472,-1.696762 9.26214,-1.696762 9.26214,0 14.33686,4.98132 17.23225,7.767746 0,0.793897 0,1.307596 -0.59153,1.307596 -0.10896,0 -0.31133,0 -1.10523,-0.404732 -3.48692,-1.494396 -7.56538,-2.58406 -12.5467,-2.58406 -2.98879,0 -7.47198,0.358032 -12.3599,2.475093 -1.08966,0.513699 -1.29203,0.513699 -1.38543,0.513699 -0.49813,0 -0.6071,-0.108966 -0.6071,-2.085928 V 34.72914 c 0,-1.836861 0,-2.35056 0.99627,-2.35056 0.49813,0 0.7005,0.202366 1.19863,0.918431 3.19116,4.607721 7.56538,6.553549 12.5467,6.553549 3.48692,0 10.9589,-2.257161 10.9589,-19.722914 0,-3.206725 0,-8.981942 -2.98879,-13.5585303 -2.49066,-4.0940223 -6.36675,-6.17995007 -10.64757,-6.17995007 -6.58468,0 -13.26277,4.57658777 -15.05293,12.25093437 0.40473,-0.0934 1.19863,-0.295766 1.60336,-0.295766 1.29203,0 3.78269,0.700498 3.78269,3.782689 0,2.693027 -1.89912,3.798257 -3.78269,3.798257 -2.30386,0 -3.79825,-1.400996 -3.79825,-4.187422 0,-8.6706103 6.88045,-17.730386 17.43462,-17.730386 10.27397,0 20.03424,8.8574096 20.03424,21.715442 0,12.250934 -7.76774,21.715442 -17.43462,21.715442 -5.09028,0 -9.3711,-1.899128 -12.74906,-5.572852 z"
                 id="use985"
                 style="stroke-width:0.996264" />
            </g>
          </g>
        </g>
        <g
           id="ytick_4">
          <g
             id="line2d_26">
            <g
               id="g998">
              <use
                 style="stroke:#000000;stroke-width:0.8"
                 x="50.069122"
                 xlink:href="#ma3d4b8ffef"
                 y="165.56482"
                 id="use996" />
            </g>
          </g>
        </g>
        <g
           id="ytick_5">
          <g
             id="line2d_28">
            <g
               id="g1020">
              <use
                 style="stroke:#000000;stroke-width:0.8"
                 x="50.069122"
                 xlink:href="#ma3d4b8ffef"
                 y="135.93631"
                 id="use1018" />
            </g>
          </g>
          <g
             id="text_14"
             transform="translate(7.2875882)">
            <!-- $0.00$ -->
            <g
               transform="matrix(0.12,0,0,-0.12,22.258489,140.08739)"
               id="g1031">
              <use
                 transform="scale(0.996264)"
                 xlink:href="#CMR17-48"
                 id="use1023" />
              <use
                 transform="matrix(0.996264,0,0,0.996264,45.690477,0)"
                 xlink:href="#CMMI12-58"
                 id="use1025" />
              <use
                 transform="matrix(0.996264,0,0,0.996264,72.787654,0)"
                 xlink:href="#CMR17-48"
                 id="use1027" />
            </g>
          </g>
        </g>
        <g
           id="ytick_6">
          <g
             id="line2d_30">
            <g
               id="g1040">
              <use
                 style="stroke:#000000;stroke-width:0.8"
                 x="50.069122"
                 xlink:href="#ma3d4b8ffef"
                 y="106.30779"
                 id="use1038" />
            </g>
          </g>
        </g>
        <g
           id="ytick_7">
          <g
             id="line2d_31" />
          <g
             id="line2d_32">
            <g
               id="g1060">
              <use
                 style="stroke:#000000;stroke-width:0.8"
                 x="50.069122"
                 xlink:href="#ma3d4b8ffef"
                 y="76.679268"
                 id="use1058" />
            </g>
          </g>
          <g
             id="text_16"
             transform="translate(7.2875882)">
            <!-- $0.50$ -->
            <g
               transform="matrix(0.12,0,0,-0.12,22.258489,80.830359)"
               id="g1071">
              <use
                 transform="scale(0.996264)"
                 xlink:href="#CMR17-48"
                 id="use1063" />
              <use
                 transform="matrix(0.996264,0,0,0.996264,45.690477,0)"
                 xlink:href="#CMMI12-58"
                 id="use1065" />
              <path
                 d="m 84.15129,58.374844 c 0.996264,-0.404732 5.07472,-1.696762 9.262142,-1.696762 9.262138,0 14.336858,4.98132 17.232258,7.767746 0,0.793897 0,1.307596 -0.59154,1.307596 -0.10896,0 -0.31133,0 -1.10523,-0.404732 -3.48692,-1.494396 -7.56538,-2.58406 -12.546696,-2.58406 -2.988792,0 -7.47198,0.358032 -12.3599,2.475093 -1.089664,0.513699 -1.29203,0.513699 -1.38543,0.513699 -0.498132,0 -0.607098,-0.108966 -0.607098,-2.085928 V 34.72914 c 0,-1.836861 0,-2.35056 0.996264,-2.35056 0.498132,0 0.700498,0.202366 1.19863,0.918431 3.191158,4.607721 7.56538,6.553549 12.5467,6.553549 3.48692,0 10.9589,-2.257161 10.9589,-19.722914 0,-3.206725 0,-8.981942 -2.98879,-13.5585303 -2.49066,-4.0940223 -6.366748,-6.17995007 -10.64757,-6.17995007 -6.584682,0 -13.262764,4.57658777 -15.052926,12.25093437 0.404732,-0.0934 1.19863,-0.295766 1.603362,-0.295766 1.29203,0 3.78269,0.700498 3.78269,3.782689 0,2.693027 -1.899128,3.798257 -3.78269,3.798257 -2.30386,0 -3.798256,-1.400996 -3.798256,-4.187422 0,-8.6706103 6.880448,-17.730386 17.43462,-17.730386 10.27397,0 20.03425,8.8574096 20.03425,21.715442 0,12.250934 -7.76775,21.715442 -17.434624,21.715442 -5.090286,0 -9.371108,-1.899128 -12.749066,-5.572852 z"
                 id="use1067"
                 style="stroke-width:0.996264" />
            </g>
          </g>
        </g>
        <g
           id="ytick_8">
          <g
             id="line2d_34">
            <g
               id="g1080">
              <use
                 style="stroke:#000000;stroke-width:0.8"
                 x="50.069122"
                 xlink:href="#ma3d4b8ffef"
                 y="47.050751"
                 id="use1078" />
            </g>
          </g>
        </g>
        <g
           id="ytick_9">
          <g
             id="line2d_36">
            <g
               id="g1100">
              <use
                 style="stroke:#000000;stroke-width:0.8"
                 x="50.069122"
                 xlink:href="#ma3d4b8ffef"
                 y="17.422234"
                 id="use1098" />
            </g>
          </g>
          <g
             id="text_18"
             transform="translate(6.7010378)">
            <!-- $1.00$ -->
            <g
               transform="matrix(0.12,0,0,-0.12,22.258489,21.573324)"
               id="g1111">
              <use
                 transform="scale(0.996264)"
                 xlink:href="#CMR17-49"
                 id="use1103" />
              <use
                 transform="matrix(0.996264,0,0,0.996264,45.690477,0)"
                 xlink:href="#CMMI12-58"
                 id="use1105" />
              <use
                 transform="matrix(0.996264,0,0,0.996264,72.787654,0)"
                 xlink:href="#CMR17-48"
                 id="use1107" />
            </g>
          </g>
        </g>
      </g>
      <g
         id="line2d_37"
         style="fill:none;fill-opacity:1;stroke:#000000;stroke-width:0.992126;stroke-dasharray:none;stroke-opacity:1"
         transform="translate(-22.053158,-11.682913)">
        <path
           clip-path="url(#p4cd8dec99e)"
           d="M 66.840525,17.422234 H 402.2686 v 0"
           style="fill:none;fill-opacity:1;stroke:#000000;stroke-width:0.992126;stroke-linecap:square;stroke-dasharray:none;stroke-opacity:1"
           id="path1116" />
      </g>
      <g
         id="line2d_38"
         style="fill:none;stroke:#000000;stroke-width:0.992126;stroke-dasharray:none;stroke-opacity:1"
         transform="translate(-22.053158,-11.682913)">
        <path
           clip-path="url(#p4cd8dec99e)"
           d="M 66.840525,254.33186 402.2686,17.540748 v 0"
           style="fill:none;stroke:#000000;stroke-width:0.992126;stroke-linecap:square;stroke-dasharray:none;stroke-opacity:1"
           id="path1119" />
      </g>
      <g
         id="line2d_39"
         style="fill:none;stroke:#000000;stroke-width:0.992126;stroke-dasharray:none;stroke-opacity:1"
         transform="translate(-22.053158,-11.682913)">
        <path
           clip-path="url(#p4cd8dec99e)"
           d="m 66.840525,17.777599 6.557734,13.602909 6.229846,12.420283 6.229847,11.930687 6.229847,11.441091 5.90196,10.387307 5.901961,9.94789 5.90196,9.508474 5.57407,8.57675 5.57408,8.1848 5.57407,7.79285 5.57407,7.40091 5.24619,6.60751 5.24619,6.26032 5.24618,5.91313 5.24619,5.56594 4.9183,4.90274 4.9183,4.5976 4.9183,4.29244 4.9183,3.98729 4.59041,3.44616 4.59042,3.18035 4.59041,2.91452 4.59042,2.6487 4.59041,2.38288 4.59041,2.11706 4.26253,1.72783 4.26253,1.49863 4.26252,1.26942 4.26253,1.04022 4.26253,0.81102 4.26252,0.58183 4.26253,0.35261 4.26253,0.12342 4.26252,-0.10579 4.26253,-0.33498 4.26253,-0.56419 4.26252,-0.79339 4.26253,-1.02259 4.26253,-1.2518 4.26252,-1.48099 4.26253,-1.7102 4.26253,-1.9394 4.59041,-2.3449 4.59042,-2.61073 4.59041,-2.87655 4.59041,-3.14237 4.59042,-3.40818 4.59041,-3.67401 4.9183,-4.23141 4.9183,-4.53657 4.9183,-4.84171 4.9183,-5.14686 5.24619,-5.82633 5.24618,-6.17353 5.24619,-6.52071 5.24619,-6.86791 5.57407,-7.67758 5.57408,-8.06952 5.57407,-8.46147 5.57407,-8.853419 5.90196,-9.801418 5.90196,-10.240834 5.90196,-10.68025 6.22985,-11.75031 6.22985,-12.239906 6.22984,-12.729502 2.6231,-5.506262 v 0"
           style="fill:none;stroke:#000000;stroke-width:0.992126;stroke-linecap:square;stroke-dasharray:none;stroke-opacity:1"
           id="path1122" />
      </g>
      <g
         id="line2d_40"
         style="fill:none;stroke:#000000;stroke-width:0.992126;stroke-dasharray:none;stroke-opacity:1"
         transform="translate(-22.053158,-11.682913)">
        <path
           clip-path="url(#p4cd8dec99e)"
           d="m 66.840525,253.74018 3.93464,-16.14007 3.93464,-15.18745 3.93464,-14.25772 3.606754,-12.27238 3.606753,-11.528 3.606754,-10.80126 3.606753,-10.09214 3.606754,-9.40064 3.278866,-7.96082 3.278871,-7.41715 3.27886,-6.88673 3.27887,-6.36955 3.27887,-5.86561 3.27886,-5.37492 2.95098,-4.42883 2.95098,-4.05175 2.95098,-3.68433 2.95098,-3.326568 2.95098,-2.97845 2.95098,-2.639991 2.95098,-2.311188 2.6231,-1.786163 2.62309,-1.540776 2.62309,-1.302172 2.6231,-1.070348 2.62309,-0.845305 2.62309,-0.627044 2.6231,-0.415562 2.62309,-0.210862 2.95098,-9.83e-4 2.95098,0.239853 2.95098,0.471035 2.95098,0.692562 2.95098,0.904433 3.27887,1.241675 3.27887,1.47808 3.60675,1.883131 3.60675,2.135529 3.93464,2.596815 4.26253,3.101963 4.26253,3.373906 4.9183,4.19289 5.24618,4.77842 5.90196,5.6871 6.88562,6.95222 9.50872,9.94476 17.37799,18.21807 7.21351,7.19982 5.90196,5.58483 5.24618,4.6659 4.9183,4.06892 4.26253,3.25201 4.26253,2.96664 3.93464,2.45997 3.60675,2.00005 3.60676,1.73803 3.27886,1.33782 3.27887,1.09348 2.95098,0.76425 2.95098,0.54595 2.95098,0.31799 2.95098,0.0804 2.62309,-0.13585 2.6231,-0.338 2.62309,-0.54695 2.62309,-0.76266 2.6231,-0.98516 2.62309,-1.21445 2.62309,-1.4505 2.6231,-1.69335 2.62309,-1.94297 2.62309,-2.19938 2.6231,-2.46256 2.95098,-3.09341 2.95098,-3.44475 2.95098,-3.80573 2.95098,-4.17638 2.95098,-4.55667 2.95098,-4.94662 2.95098,-5.34623 3.27886,-6.42066 3.27887,-6.93918 3.27887,-7.47092 3.27887,-8.01591 3.27886,-8.57416 3.60676,-10.092133 3.60675,-10.801256 3.60675,-11.528003 3.60676,-12.272378 3.60675,-13.034381 3.93464,-15.1091 3.93464,-16.05981 0.32789,-1.381949 v 0"
           style="fill:none;stroke:#000000;stroke-width:0.992126;stroke-linecap:square;stroke-dasharray:none;stroke-opacity:1"
           id="path1125" />
      </g>
      <g
         id="line2d_41"
         style="fill:none;stroke:#000000;stroke-width:0.992126;stroke-dasharray:none;stroke-opacity:1"
         transform="translate(-22.053158,-11.682913)">
        <path
           clip-path="url(#p4cd8dec99e)"
           d="m 66.840525,18.604711 2.95098,19.927647 2.95098,18.350504 2.95098,16.839095 2.623094,13.751456 2.623093,12.652817 2.623094,11.59799 2.623093,10.58621 2.623093,9.61676 2.623094,8.68888 2.295207,6.87376 2.295206,6.22152 2.295207,5.59574 2.295204,4.99599 2.29521,4.42182 1.96732,3.35222 1.96732,2.96445 1.96732,2.59205 1.96732,2.23474 1.96732,1.89233 1.96732,1.56456 1.96732,1.2512 1.96732,0.95202 1.96732,0.66679 1.96732,0.39526 1.96732,0.1372 1.96732,-0.10761 1.96732,-0.33943 1.96732,-0.55846 2.29521,-0.91168 2.2952,-1.17327 2.29521,-1.41579 2.62309,-1.89113 2.6231,-2.15645 2.95098,-2.71035 3.27886,-3.32194 3.60676,-3.97594 4.26252,-5.05178 4.9183,-6.18396 6.88562,-9.04165 13.77125,-18.14927 5.57407,-6.93165 4.59041,-5.37801 4.26253,-4.66302 3.93464,-3.9783 3.60675,-3.34161 3.60676,-3.02529 3.27886,-2.458093 3.27887,-2.165471 2.95098,-1.688743 2.95098,-1.43442 2.95098,-1.173759 2.62309,-0.820328 2.6231,-0.607463 2.62309,-0.392513 2.62309,-0.176217 2.6231,0.04068 2.62309,0.257438 2.62309,0.473317 2.6231,0.687571 2.62309,0.899464 2.95098,1.261276 2.95098,1.519957 2.95098,1.771904 2.95098,2.01593 3.27887,2.51502 3.27887,2.79079 3.60675,3.36923 3.93464,4.00583 4.26253,4.68942 4.59041,5.40201 5.24619,6.53505 6.55773,8.54457 16.72222,21.98384 4.9183,5.9957 3.93464,4.46862 3.60675,3.76749 3.27887,3.09721 2.95098,2.47832 2.62309,1.92576 2.6231,1.63675 2.2952,1.17327 2.29521,0.91168 1.96732,0.55846 1.96732,0.33943 1.96732,0.10761 1.96732,-0.1372 1.96732,-0.39526 1.96732,-0.66679 1.63944,-0.77295 1.96731,-1.20036 1.96733,-1.51134 1.96731,-1.83669 1.96732,-2.17665 1.96732,-2.53145 1.96732,-2.90133 1.96732,-3.28651 1.96732,-3.68726 2.29521,-4.82934 2.29521,-5.42175 2.2952,-6.04005 2.29521,-6.68467 2.29521,-7.35607 2.29521,-8.05468 2.62309,-10.09624 2.62309,-11.08676 2.6231,-12.119974 2.62309,-13.196614 2.62309,-14.317433 2.6231,-15.483166 2.95098,-18.868856 1.96732,-13.463616 v 0"
           style="fill:none;stroke:#000000;stroke-width:0.992126;stroke-linecap:square;stroke-dasharray:none;stroke-opacity:1"
           id="path1128" />
      </g>
      <g
         id="line2d_42"
         style="stroke-width:0.992126;stroke-dasharray:none"
         transform="translate(-22.053158,-11.682913)">
        <path
           clip-path="url(#p4cd8dec99e)"
           d="m 66.840525,252.67887 2.295207,-22.99695 2.295206,-20.80498 2.295207,-18.7341 2.295207,-16.78055 1.96732,-12.91463 1.96732,-11.63221 1.96732,-10.41717 1.96732,-9.26757 1.96732,-8.18149 1.96732,-7.15703 1.639434,-5.22478 1.639433,-4.58847 1.639434,-3.984891 1.639433,-3.413147 1.639433,-2.872395 1.639434,-2.361779 1.311546,-1.541497 1.311551,-1.248085 1.31154,-0.968954 1.31155,-0.703769 1.31155,-0.452199 1.31154,-0.213919 1.31155,0.0114 1.31155,0.224068 1.31154,0.424414 1.63944,0.793981 1.63943,1.065492 1.63943,1.314973 1.96732,1.877354 1.96732,2.170574 2.29521,2.857759 2.62309,3.63249 2.95098,4.46759 3.60676,5.8733 4.9183,8.46748 12.1318,21.08043 4.26253,6.8772 3.60675,5.42248 3.27887,4.55094 2.95098,3.74946 2.95098,3.39308 2.62309,2.69871 2.6231,2.38665 2.62309,2.06459 2.29521,1.53641 2.2952,1.28071 2.29521,1.02302 2.29521,0.76469 2.29521,0.50704 2.2952,0.2513 2.29521,-0.001 2.29521,-0.24969 2.2952,-0.49271 2.29521,-0.72934 2.29521,-0.95862 2.2952,-1.17959 2.6231,-1.6069 2.62309,-1.86853 2.95098,-2.3945 2.95098,-2.67999 3.27887,-3.28007 3.60675,-3.9306 3.93464,-4.61099 4.9183,-6.12751 6.88562,-8.98692 10.82026,-14.14299 4.9183,-6.05657 4.26253,-4.89566 3.60675,-3.81332 3.27887,-3.15682 2.95098,-2.55631 2.95098,-2.25948 2.62309,-1.739671 2.62309,-1.470374 2.29521,-1.054389 2.29521,-0.828561 2.29521,-0.594963 2.2952,-0.354557 2.29521,-0.108354 2.29521,0.142581 2.2952,0.397127 2.29521,0.654111 2.29521,0.912307 2.2952,1.170434 2.29521,1.427162 2.29521,1.681097 2.62309,2.22671 2.62309,2.54409 2.6231,2.85014 2.95098,3.55451 2.95098,3.89944 3.27886,4.70156 3.60676,5.56513 4.26252,7.00902 5.57408,9.63929 10.49237,18.25839 3.93464,6.34747 2.95098,4.38568 2.62309,3.54094 2.29521,2.76226 1.96732,2.07667 1.96732,1.77182 1.63944,1.21778 1.63943,0.95957 1.63943,0.67904 1.31155,0.32577 1.31154,0.11929 1.31155,-0.0997 1.31155,-0.33142 1.31154,-0.5763 1.31155,-0.83464 1.31155,-1.10676 1.31154,-1.39298 1.31155,-1.69366 1.31155,-2.00913 1.63943,-2.97811 1.63944,-3.52498 1.63943,-4.10303 1.63943,-4.71309 1.63944,-5.35605 1.63943,-6.03277 1.96732,-8.18149 1.96732,-9.26757 1.96732,-10.41717 1.96732,-11.63221 1.96732,-12.914634 1.96732,-14.266406 2.29521,-18.447929 2.2952,-20.501811 2.29521,-22.676258 0.32789,-3.424177 v 0"
           style="fill:none;stroke:#000000;stroke-width:0.992126;stroke-linecap:square;stroke-dasharray:none;stroke-opacity:1"
           id="path1131" />
      </g>
      <g
         id="patch_3"
         transform="matrix(1,0,0,0.98765107,-5.553279,-11.504355)">
        <path
           d="M 50.069121,257.41322 V 14.459383"
           style="fill:none;stroke:#000000;stroke-width:0.8;stroke-linecap:square;stroke-linejoin:miter"
           id="path1134" />
      </g>
      <g
         id="patch_4"
         transform="translate(-38.553157,-11.682913)">
        <path
           d="M 419.04,257.41322 V 14.459383"
           style="fill:none;stroke:#000000;stroke-width:0.8;stroke-linecap:square;stroke-linejoin:miter"
           id="path1137" />
      </g>
      <g
         id="patch_5"
         transform="matrix(0.91061075,0,0,1,-1.095079,-14.683133)">
        <path
           d="M 50.069121,257.41322 H 419.04"
           style="fill:none;stroke:#000000;stroke-width:0.8;stroke-linecap:square;stroke-linejoin:miter"
           id="path1140" />
      </g>
      <g
         id="patch_6"
         transform="matrix(0.91061075,0,0,1,-1.095503,-11.682913)">
        <path
           d="M 50.069121,14.459383 H 419.04"
           style="fill:none;stroke:#000000;stroke-width:0.8;stroke-linecap:square;stroke-linejoin:miter"
           id="path1143" />
      </g>
      <g
         id="legend_1"
         style="fill:#000000;fill-opacity:1"
         transform="translate(-22.053158,-11.682913)">
        <g
           id="line2d_44"
           style="fill:#000000;fill-opacity:1" />
        <g
           id="text_19"
           transform="translate(137.15167,-196.01028)"
           style="fill:#000000;fill-opacity:1">
          <!-- $P_0$ -->
          <defs
             id="defs1154">
            <path
               d="m 29.59375,31.59375 h 16.8125 C 60.203125,31.59375 74,41.765625 74,53.125 74,60.90625 67.40625,68 54.796875,68 H 23.90625 c -1.90625,0 -2.8125,0 -2.8125,-1.90625 0,-1 0.90625,-1 2.40625,-1 6.09375,0 6.09375,-0.796875 6.09375,-1.890625 0,-0.203125 0,-0.796875 -0.390625,-2.296875 l -13.5,-53.546875 c -0.90625,-3.46875 -1.109375,-4.46875 -8.109375,-4.46875 -1.890625,0 -2.890625,0 -2.890625,-1.796875 C 4.703125,0 5.59375,0 6.203125,0 8.09375,0 10.09375,0.1875 12,0.1875 H 23.703125 C 25.59375,0.1875 27.703125,0 29.59375,0 30.40625,0 31.5,0 31.5,1.890625 c 0,1 -0.90625,1 -2.40625,1 -6,0 -6.09375,0.703125 -6.09375,1.6875 0,0.5 0.09375,1.1875 0.203125,1.6875 z m 7.203125,29.609375 C 37.703125,64.890625 38.09375,65.09375 42,65.09375 h 9.90625 c 7.5,0 13.6875,-2.390625 13.6875,-9.875 0,-2.578125 -1.296875,-11.0625 -5.890625,-15.640625 C 58,37.78125 53.203125,34 44.09375,34 H 30 Z"
               id="CMMI12-80" />
          </defs>
          <g
             transform="matrix(0.12,0,0,-0.12,185.38539,227.56403)"
             id="g1160"
             style="fill:#000000;fill-opacity:1">
            <use
               transform="matrix(0.996264,0,0,0.996264,0,14.943915)"
               xlink:href="#CMMI12-80"
               id="use1156"
               style="fill:#000000;fill-opacity:1" />
            <use
               transform="matrix(0.697382,0,0,0.697382,62.877232,0)"
               xlink:href="#CMR17-48"
               id="use1158"
               style="fill:#000000;fill-opacity:1" />
          </g>
        </g>
        <rect
           style="display:inline;fill:#ffffff;fill-opacity:1;stroke:none;stroke-width:0.119055;stroke-dasharray:none;stroke-opacity:1"
           id="rect3129"
           width="12.487553"
           height="11.935646"
           x="185.11475"
           y="233.60236"
           transform="translate(148.75139,-177.46223)" />
        <g
           id="line2d_46"
           style="fill:#000000;fill-opacity:1" />
        <g
           id="text_20"
           transform="translate(148.75139,-177.46223)"
           style="fill:#000000;fill-opacity:1">
          <!-- $P_1$ -->
          <g
             transform="matrix(0.12,0,0,-0.12,185.38539,244.28863)"
             id="g1171"
             style="fill:#000000;fill-opacity:1;stroke:#000000;stroke-width:0.992126;stroke-dasharray:none;stroke-opacity:1">
            <use
               transform="matrix(0.996264,0,0,0.996264,0,14.943915)"
               xlink:href="#CMMI12-80"
               id="use1167"
               style="fill:#000000;fill-opacity:1;stroke:#000000;stroke-width:0.995846;stroke-dasharray:none;stroke-opacity:1" />
            <use
               transform="matrix(0.697382,0,0,0.697382,62.877232,0)"
               xlink:href="#CMR17-49"
               id="use1169"
               style="fill:#000000;fill-opacity:1;stroke:#000000;stroke-width:1.42264;stroke-dasharray:none;stroke-opacity:1" />
          </g>
        </g>
        <g
           id="line2d_48"
           style="fill:#000000;fill-opacity:1" />
        <rect
           style="fill:#ffffff;fill-opacity:1;stroke:none;stroke-width:0.119055;stroke-dasharray:none;stroke-opacity:1"
           id="rect4948"
           width="11.30955"
           height="10.711048"
           x="347.9848"
           y="99.995903" />
        <g
           id="text_21"
           transform="translate(111.58653,-117.2289)"
           style="fill:#000000;fill-opacity:1">
          <!-- $P_2$ -->
          <g
             transform="matrix(0.12,0,0,-0.12,236.16483,227.56403)"
             id="g1182"
             style="fill:#000000;fill-opacity:1">
            <use
               transform="matrix(0.996264,0,0,0.996264,0,14.943915)"
               xlink:href="#CMMI12-80"
               id="use1178"
               style="fill:#000000;fill-opacity:1" />
            <path
               d="M 91.960241,10.787628 H 90.707132 C 90.00975,5.8514708 89.443128,5.0124331 89.170713,4.5983626 88.822022,4.0426363 83.798692,4.0426363 82.817999,4.0426363 H 69.436981 c 2.506217,2.7132518 7.387891,7.6494087 13.315638,13.3483277 4.249672,4.031739 9.207622,8.760861 9.207622,15.658405 0,8.226928 -6.55975,12.977843 -13.882261,12.977843 -7.671202,0 -12.34584,-6.766785 -12.34584,-13.043223 0,-2.724148 2.026766,-3.072839 2.865804,-3.072839 0.697382,0 2.789528,0.41407 2.789528,2.854907 0,2.168423 -1.819731,2.800425 -2.789528,2.800425 -0.424967,0 -0.839038,-0.07628 -1.122349,-0.217932 1.329384,5.927747 5.37202,8.858931 9.632588,8.858931 6.058507,0 10.035763,-4.805398 10.035763,-11.158112 0,-6.058506 -3.552289,-11.277975 -7.529546,-15.800061 L 65.73214,1.6017993 V 0 h 24.550025 z"
               id="use1180"
               style="fill:#000000;fill-opacity:1;stroke-width:0.697382" />
          </g>
        </g>
        <g
           id="line2d_50"
           style="fill:#000000;fill-opacity:1" />
        <g
           id="text_22"
           transform="translate(117.71722,-94.039352)"
           style="fill:#000000;fill-opacity:1">
          <!-- $P_3$ -->
          <defs
             id="defs1190">
            <path
               d="M 22.09375,34 C 31,34 34.90625,26.140625 34.90625,17.09375 34.90625,5.03125 28.5,0.390625 22.703125,0.390625 c -5.296875,0 -13.90625,2.625 -16.609375,10.40625 0.5,-0.203125 1,-0.203125 1.5,-0.203125 2.40625,0 4.203125,1.59375 4.203125,4.203125 C 11.796875,17.6875 9.59375,19 7.59375,19 5.90625,19 3.296875,18.1875 3.296875,14.484375 3.296875,5.234375 12.296875,-2 22.90625,-2 34,-2 42.5,6.75 42.5,16.984375 42.5,26.84375 34.5,34 25,35.09375 32.59375,36.671875 39.90625,43.375 39.90625,52.390625 39.90625,60.25 32,66 23,66 13.90625,66 5.90625,60.34375 5.90625,52.296875 c 0,-3.5 2.59375,-4.109375 3.890625,-4.109375 2.109375,0 3.90625,1.296875 3.90625,3.90625 C 13.703125,54.6875 11.90625,56 9.796875,56 9.40625,56 8.90625,56 8.5,55.796875 c 2.90625,6.6875 10.796875,7.890625 14.296875,7.890625 3.5,0 10.109375,-1.71875 10.109375,-11.390625 0,-2.8125 -0.40625,-7.75 -3.8125,-12.078125 -3,-3.828125 -6.390625,-4.03125 -9.6875,-4.328125 -0.5,0 -2.8125,-0.203125 -3.203125,-0.203125 C 15.5,35.59375 15.09375,35.5 15.09375,34.796875 15.09375,34.09375 15.203125,34 17.203125,34 Z"
               id="CMR17-51" />
          </defs>
          <rect
             style="fill:#ffffff;fill-opacity:1;stroke:none;stroke-width:0.119055;stroke-dasharray:none;stroke-opacity:1"
             id="rect5159"
             width="11.668466"
             height="10.924495"
             x="354.00259"
             y="139.98294"
             transform="translate(-117.71722,94.039352)" />
          <g
             transform="matrix(0.12,0,0,-0.12,236.16483,244.28863)"
             id="g1196"
             style="fill:#000000;fill-opacity:1">
            <use
               transform="matrix(0.996264,0,0,0.996264,0,14.943915)"
               xlink:href="#CMMI12-80"
               id="use1192"
               style="fill:#000000;fill-opacity:1" />
            <use
               transform="matrix(0.697382,0,0,0.697382,62.877232,0)"
               xlink:href="#CMR17-51"
               id="use1194"
               style="fill:#000000;fill-opacity:1" />
          </g>
        </g>
        <g
           id="line2d_52"
           style="fill:#000000;fill-opacity:1" />
        <rect
           style="fill:#ffffff;fill-opacity:1;stroke:none;stroke-width:0.119055;stroke-dasharray:none;stroke-opacity:1"
           id="rect5422"
           width="11.390994"
           height="10.658985"
           x="361.52008"
           y="160.0558" />
        <g
           id="text_23"
           transform="translate(74.406169,-57.192802)"
           style="fill:#000000;fill-opacity:1">
          <!-- $P_4$ -->
          <defs
             id="defs1204">
            <path
               d="M 33.59375,64.796875 C 33.59375,66.890625 33.5,67 31.703125,67 L 2,19.59375 V 17 H 27.796875 V 7.1875 c 0,-3.59375 -0.203125,-4.59375 -7.203125,-4.59375 H 18.703125 V 0 c 3.203125,0.1875 8.59375,0.1875 12,0.1875 3.390625,0 8.796875,0 12,-0.1875 v 2.59375 h -1.90625 c -7,0 -7.203125,1 -7.203125,4.59375 V 17 h 10.203125 v 2.59375 H 33.59375 Z m -5.5,-6.625 V 19.59375 H 4 Z"
               id="CMR17-52" />
          </defs>
          <g
             transform="matrix(0.12,0,0,-0.12,286.94429,227.56403)"
             id="g1210"
             style="fill:#000000;fill-opacity:1">
            <use
               transform="matrix(0.996264,0,0,0.996264,0,14.943915)"
               xlink:href="#CMMI12-80"
               id="use1206"
               style="fill:#000000;fill-opacity:1" />
            <use
               transform="matrix(0.697382,0,0,0.697382,62.877232,0)"
               xlink:href="#CMR17-52"
               id="use1208"
               style="fill:#000000;fill-opacity:1" />
          </g>
        </g>
        <g
           id="line2d_54"
           style="fill:#000000;fill-opacity:1" />
        <g
           id="text_24"
           transform="translate(81.624679,-56.637532)"
           style="fill:#000000;fill-opacity:1">
          <!-- $P_5$ -->
          <g
             transform="matrix(0.12,0,0,-0.12,286.94429,244.28863)"
             id="g1221"
             style="fill:#000000;fill-opacity:1">
            <rect
               style="fill:#ffffff;fill-opacity:1;stroke:none;stroke-width:0.97611;stroke-dasharray:none;stroke-opacity:1"
               id="rect5425"
               width="94.435158"
               height="90.628555"
               x="1.0043132"
               y="-86.779816"
               transform="scale(1,-1)" />
            <use
               transform="matrix(0.996264,0,0,0.996264,0,14.943915)"
               xlink:href="#CMMI12-80"
               id="use1217"
               style="fill:#000000;fill-opacity:1" />
            <path
               d="m 70.831745,40.862227 c 0.697382,-0.283312 3.55229,-1.187729 6.483474,-1.187729 6.483473,0 10.035763,3.48691 12.062529,5.4374 0,0.555726 0,0.915314 -0.414071,0.915314 -0.07628,0 -0.217931,0 -0.773658,-0.283311 -2.440837,-1.046073 -5.295744,-1.808835 -8.782654,-1.808835 -2.092146,0 -5.230365,0.250622 -8.651896,1.732558 -0.762761,0.359588 -0.904417,0.359588 -0.969797,0.359588 -0.348691,0 -0.424967,-0.07628 -0.424967,-1.460144 V 24.310301 c 0,-1.285798 0,-1.645386 0.697382,-1.645386 0.348691,0 0.490347,0.141656 0.839038,0.642899 2.233802,3.225392 5.295745,4.587466 8.782655,4.587466 2.440837,0 7.671202,-1.580006 7.671202,-13.805984 0,-2.244699 0,-6.2873349 -2.092146,-9.4909334 -1.743455,-2.8658042 -4.456707,-4.32594776 -7.453271,-4.32594776 -4.609259,0 -9.283897,3.20359856 -10.537006,8.57561926 0.283312,-0.065379 0.839038,-0.2070353 1.122349,-0.2070353 0.904418,0 2.647873,0.4903468 2.647873,2.6478722 0,1.885111 -1.329385,2.658769 -2.647873,2.658769 -1.612695,0 -2.658768,-0.980693 -2.658768,-2.931184 0,-6.0694024 4.816294,-12.41122 12.204185,-12.41122 7.191751,0 14.023916,6.2001618 14.023916,15.200748 0,8.57562 -5.437401,15.200749 -12.204185,15.200749 -3.563186,0 -6.55975,-1.329385 -8.924311,-3.900981 z"
               id="use1219"
               style="fill:#000000;fill-opacity:1;stroke-width:0.697382" />
            <text
               xml:space="preserve"
               style="font-style:italic;font-variant:normal;font-weight:normal;font-stretch:normal;font-size:100px;font-family:cmr10;-inkscape-font-specification:'cmr10 Italic';fill:#000000;fill-opacity:1;stroke:none;stroke-width:0.992125;stroke-dasharray:none;stroke-opacity:1"
               x="-1141.8055"
               y="807.81519"
               id="text5698"
               transform="scale(1,-1)"><tspan
                 sodipodi:role="line"
                 id="tspan5696"
                 style="font-style:italic;font-variant:normal;font-weight:normal;font-stretch:normal;font-family:cmr10;-inkscape-font-specification:'cmr10 Italic';fill:#000000;fill-opacity:1;stroke-width:0.992126"
                 x="-1141.8055"
                 y="807.81519">x</tspan></text>
            <text
               xml:space="preserve"
               style="font-style:italic;font-variant:normal;font-weight:normal;font-stretch:normal;font-size:100px;font-family:cmr10;-inkscape-font-specification:'cmr10 Italic';fill:#000000;fill-opacity:1;stroke:none;stroke-width:0.992125;stroke-dasharray:none;stroke-opacity:1"
               x="-268.34796"
               y="-2794.9885"
               id="text5856"
               transform="matrix(0,1,1,0,0,0)"><tspan
                 sodipodi:role="line"
                 id="tspan5854"
                 style="font-style:normal;font-variant:normal;font-weight:normal;font-stretch:normal;font-family:cmr10;-inkscape-font-specification:cmr10;stroke-width:0.992126"
                 x="-268.34796"
                 y="-2794.9885">Legendre polynomials, P(<tspan
   style="font-style:italic;font-variant:normal;font-weight:normal;font-stretch:normal;font-family:cmr10;-inkscape-font-specification:'cmr10 Italic'"
   id="tspan5858">x</tspan>)</tspan></text>
          </g>
        </g>
      </g>
    </g>
  </g>
  <defs
     id="defs1230">
    <clipPath
       id="p4cd8dec99e">
      <rect
         height="242.95384"
         width="368.97089"
         x="50.069122"
         y="14.459383"
         id="rect1227" />
    </clipPath>
  </defs>
</svg>
